<svg width="64" height="64" viewBox="0 0 64 64" fill="none" xmlns="http://www.w3.org/2000/svg">
<circle cx="32" cy="32" r="32" fill="#1B1B1B"/>
<path d="M52.906 36.8829C52.906 36.8829 52.906 36.8522 52.8958 36.8215V36.7806L52.8753 36.7498C52.8753 36.7396 52.8753 36.7089 52.8446 36.6577C52.8446 36.6475 52.8446 36.627 52.8241 36.6168L42.741 16.563V16.5323L42.7205 16.5118C42.6795 16.4402 42.6386 16.389 42.5976 16.348L42.5669 16.3071C42.5669 16.3071 42.4646 16.2047 42.4134 16.1843C42.3827 16.1536 42.3622 16.1433 42.3315 16.1331C42.2905 16.1126 42.2394 16.0819 42.1882 16.0717C42.1472 16.0512 42.1063 16.0512 42.1165 16.0512C42.0653 16.0409 41.9732 16.0205 41.8913 16.0205H41.8504C41.8504 16.0205 41.7889 16.0205 41.7582 16.0205C41.7071 16.0205 41.6661 16.0205 41.6149 16.0409C41.574 16.0512 41.5228 16.0614 41.4818 16.0921C41.4614 16.0921 41.4409 16.1126 41.4307 16.1228H41.4C41.4 16.1228 41.359 16.1638 41.3283 16.1843C41.2976 16.1945 41.2771 16.2252 41.2669 16.2354C41.2259 16.2559 41.1952 16.2866 41.1747 16.3173C41.144 16.348 41.1236 16.3685 41.0928 16.4299C41.0826 16.4504 41.0621 16.4709 41.0519 16.4811L40.9802 16.6244C40.9802 16.6244 40.9598 16.6756 40.9598 16.6961C40.9291 16.7473 40.9291 16.7882 40.9291 16.8599C40.9291 16.8804 40.9291 16.9008 40.9291 16.9315V34.6923L32.5145 26.3186C32.5145 26.3186 32.4223 26.2367 32.3712 26.1958L32.3302 26.1753C32.3302 26.1753 32.3097 26.1548 32.279 26.1446C32.2586 26.1344 32.2278 26.1139 32.2074 26.1036C32.1767 26.0934 32.1562 26.0832 32.1255 26.0832C32.105 26.0729 32.0743 26.0627 32.0641 26.0627H32.0231C31.9207 26.032 31.8286 26.032 31.7365 26.0422C31.6648 26.0422 31.5829 26.0627 31.5317 26.0832C31.5113 26.0832 31.4908 26.0832 31.4396 26.1139C31.4191 26.1139 31.3884 26.1344 31.3577 26.1651C31.3577 26.1651 31.3372 26.1753 31.327 26.1855L31.2963 26.206C31.2451 26.247 31.1939 26.2879 31.153 26.3289L22.7384 34.7025V16.9213C22.7384 16.9213 22.7384 16.8496 22.7282 16.7985C22.7282 16.778 22.7282 16.7678 22.7179 16.737L22.6975 16.6654C22.6975 16.6654 22.6975 16.6244 22.677 16.604L22.6053 16.4607C22.6053 16.4607 22.5848 16.4197 22.5541 16.389C22.5337 16.3583 22.5132 16.3276 22.4927 16.3071C22.4722 16.2764 22.4518 16.2559 22.4211 16.2354L22.3904 16.215C22.3904 16.215 22.3596 16.1843 22.3085 16.1536C22.2982 16.1536 22.288 16.1331 22.2675 16.1331C22.247 16.1228 22.2266 16.1024 22.1856 16.0921C22.1447 16.0717 22.1037 16.0512 22.0628 16.0409L21.9911 16.0205C21.9297 16 21.8683 16 21.8069 16H21.7761C21.7045 16 21.6533 16 21.5714 16.0205C21.5407 16.0205 21.5202 16.0205 21.4895 16.0409C21.4281 16.0614 21.3667 16.0819 21.3053 16.1228L21.2643 16.1433C21.1927 16.1843 21.1415 16.2457 21.0903 16.2866C21.0698 16.3071 21.0596 16.3276 21.0493 16.3378L20.947 16.4811L10.8229 36.5758V36.5963C10.8229 36.5963 10.7921 36.627 10.7921 36.6475V36.6679C10.7921 36.6679 10.741 36.7294 10.7307 36.7703C10.7102 36.8215 10.7102 36.8624 10.7 36.9341C10.7 36.9546 10.7 36.975 10.7 37.0262V37.0774C10.7 37.0774 10.7 37.1491 10.7102 37.2003C10.7102 37.2207 10.7102 37.231 10.7205 37.2617V37.3231C10.7205 37.3231 10.741 37.364 10.7614 37.3845L10.8331 37.5278C10.8331 37.5278 10.8536 37.5585 10.8843 37.5995C10.9047 37.6302 10.9252 37.6609 10.9457 37.6814C10.9662 37.7121 10.9866 37.7326 11.0174 37.753L11.0481 37.7735C11.0481 37.7735 11.0788 37.8042 11.13 37.8349C11.1402 37.8349 11.1504 37.8554 11.1607 37.8554C11.1811 37.8759 11.2016 37.8964 11.2528 37.8964L31.3884 47.9079L31.4908 47.9488C31.4908 47.9488 31.501 47.9488 31.5113 47.9488L31.5727 47.9591C31.5829 47.9591 31.5932 47.9591 31.6136 47.9693L31.9105 48C31.9105 48 31.9515 48 31.9924 47.9898H32.0641L32.0743 47.9693C32.0948 47.9693 32.105 47.9693 32.105 47.9693L52.4044 37.8964L52.4556 37.8759C52.4556 37.8759 52.4966 37.8554 52.5273 37.8247C52.558 37.8145 52.5785 37.794 52.5887 37.7735C52.6296 37.753 52.6501 37.7223 52.6911 37.6814C52.7115 37.6609 52.732 37.6302 52.773 37.579C52.7832 37.5585 52.8037 37.5483 52.8037 37.5278L52.8753 37.3845C52.8753 37.3845 52.8958 37.3333 52.8958 37.3129C52.9265 37.2617 52.9265 37.2207 52.9265 37.1491C52.9265 37.1286 52.9265 37.1081 52.9265 37.0774V37.0058C52.9265 37.0058 52.9265 36.9341 52.9163 36.8829H52.906ZM47.8491 37.968L36.7013 43.5061L42.2701 37.968H47.8389H47.8491ZM40.5196 37.0058L32.7806 44.7038V29.3077L40.5196 37.0058ZM50.3878 36.0333H42.8433V21.0467L50.3878 36.0435V36.0333ZM26.9047 43.5061L15.757 37.968H21.3257L26.8945 43.5061H26.9047ZM20.7627 21.0365V36.0435H13.2285L20.7627 21.0365ZM30.8356 29.3077V44.7038L23.0967 37.0058L30.8356 29.3077Z" fill="#A3EC26"/>
</svg>
